HIERARCHY
ROOT Hips
{
	OFFSET 0.00000 0.00000 0.00000
	CHANNELS 6 Xposition Yposition Zposition Zrotation Yrotation Xrotation 
	JOINT LHipJoint
	{
		OFFSET 0 0 0
		CHANNELS 3 Zrotation Yrotation Xrotation
		JOINT LeftUpLeg
		{
			OFFSET 1.38280 -1.96574 0.54427
			CHANNELS 3 Zrotation Yrotation Xrotation
			JOINT LeftLeg
			{
				OFFSET 2.72096 -7.47578 0.00000
				CHANNELS 3 Zrotation Yrotation Xrotation
				JOINT LeftFoot
				{
					OFFSET 2.73041 -7.50176 0.00000
					CHANNELS 3 Zrotation Yrotation Xrotation
					JOINT LeftToeBase
					{
						OFFSET 0.16150 -0.44371 2.18031
						CHANNELS 3 Zrotation Yrotation Xrotation
						End Site
						{
							OFFSET 0.00000 -0.00000 1.12127
						}
					}
				}
			}
		}
	}
	JOINT RHipJoint
	{
		OFFSET 0 0 0
		CHANNELS 3 Zrotation Yrotation Xrotation
		JOINT RightUpLeg
		{
			OFFSET -1.57224 -1.96575 0.54427
			CHANNELS 3 Zrotation Yrotation Xrotation
			JOINT RightLeg
			{
				OFFSET -2.95935 -8.13076 0.00000
				CHANNELS 3 Zrotation Yrotation Xrotation
				JOINT RightFoot
				{
					OFFSET -2.52345 -6.93311 0.00000
					CHANNELS 3 Zrotation Yrotation Xrotation
					JOINT RightToeBase
					{
						OFFSET -0.04475 -0.10171 1.86688
						CHANNELS 3 Zrotation Yrotation Xrotation
						End Site
						{
							OFFSET -0.00000 -0.00000 0.95157
						}
					}
				}
			}
		}
	}
	JOINT LowerBack
	{
		OFFSET 0 0 0
		CHANNELS 3 Zrotation Yrotation Xrotation
		JOINT Spine
		{
			OFFSET 0.00669 2.07367 0.09104
			CHANNELS 3 Zrotation Yrotation Xrotation
			JOINT Spine1
			{
				OFFSET -0.00664 2.06198 -0.04732
				CHANNELS 3 Zrotation Yrotation Xrotation
				JOINT Neck
				{
					OFFSET 0 0 0
					CHANNELS 3 Zrotation Yrotation Xrotation
					JOINT Neck1
					{
						OFFSET -0.00021 1.49948 0.16345
						CHANNELS 3 Zrotation Yrotation Xrotation
						JOINT Head
						{
							OFFSET 0.06080 1.50567 -0.26702
							CHANNELS 3 Zrotation Yrotation Xrotation
							End Site
							{
								OFFSET 0.01726 1.56470 -0.11854
							}
						}
					}
				}
				JOINT LeftShoulder
				{
					OFFSET 0 0 0
					CHANNELS 3 Zrotation Yrotation Xrotation
					JOINT LeftArm
					{
						OFFSET 3.14993 0.82932 -0.22488
						CHANNELS 3 Zrotation Yrotation Xrotation
						JOINT LeftForeArm
						{
							OFFSET 5.68236 -0.00000 -0.00000
							CHANNELS 3 Zrotation Yrotation Xrotation
							JOINT LeftHand
							{
								OFFSET 3.17112 -0.00000 0.00000
								CHANNELS 3 Zrotation Yrotation Xrotation
								JOINT LeftFingerBase
								{
									OFFSET 0 0 0
									CHANNELS 3 Zrotation Yrotation Xrotation
									JOINT LeftHandIndex1
									{
										OFFSET 0.63269 -0.00000 0.00000
										CHANNELS 3 Zrotation Yrotation Xrotation
										End Site
										{
											OFFSET 0.51009 -0.00000 0.00000
										}
									}
								}
								JOINT LThumb
								{
									OFFSET 0 0 0
									CHANNELS 3 Zrotation Yrotation Xrotation
									End Site
									{
										OFFSET 0.51788 -0.00000 0.51788
									}
								}
							}
						}
					}
				}
				JOINT RightShoulder
				{
					OFFSET 0 0 0
					CHANNELS 3 Zrotation Yrotation Xrotation
					JOINT RightArm
					{
						OFFSET -3.10571 0.91279 -0.33334
						CHANNELS 3 Zrotation Yrotation Xrotation
						JOINT RightForeArm
						{
							OFFSET -5.87120 -0.00000 -0.00000
							CHANNELS 3 Zrotation Yrotation Xrotation
							JOINT RightHand
							{
								OFFSET -3.37589 -0.00000 0.00000
								CHANNELS 3 Zrotation Yrotation Xrotation
								JOINT RightFingerBase
								{
									OFFSET 0 0 0
									CHANNELS 3 Zrotation Yrotation Xrotation
									JOINT RightHandIndex1
									{
										OFFSET -0.60326 -0.00000 0.00000
										CHANNELS 3 Zrotation Yrotation Xrotation
										End Site
										{
											OFFSET -0.48636 -0.00000 0.00000
										}
									}
								}
								JOINT RThumb
								{
									OFFSET 0 0 0
									CHANNELS 3 Zrotation Yrotation Xrotation
									End Site
									{
										OFFSET -0.49379 -0.00000 0.49379
									}
								}
							}
						}
					}
				}
			}
		}
	}
}
MOTION
Frames: 12
Frame Time: 0.00787402
0.00 0.00 0.00 0 0 0 0 0 0 -21 0 0 0 0 0 0 0 0 0 0 0 0 0 0 21 0 0 0 0 0 0 0 0 0 0 0 0 0 0 0 0 0 0 0 0 0 0 -16 0 0 21 0 0 11 0 0 0 -8 0 0 0 0 0 0 0 0 0 0 0 0 0 0 0 0 0 0 0 0 8 0 0 0 0 0 0 0 0 0 0 0 0 0 0 0 0 0
0.00 0.00 0.00 122.8750 -86.9515 -109.8790 0.0000 0.0000 0.0000 -18.1662 -16.1797 -45.7885 3.8526 11.9616 35.5963 1.0001 0.1994 -18.9804 1.5743 -7.9164 -22.4606 0.0000 0.0000 0.0000 21.2341 10.5596 -15.6401 -3.4398 -11.3751 33.5556 1.3707 20.4991 3.9168 -5.9497 -14.3795 44.7797 -0.1202 0.9057 -8.1742 1.8140 1.0980 1.6087 2.1119 0.4947 6.2357 -0.4816 0.0648 -19.6516 -0.4952 0.2311 21.5862 -0.0710 -0.0452 10.1361 0.0000 0.0000 0.0000 -88.2094 4.6387 31.9509 17.4894 -27.4985 -4.3109 -0.0000 0.0000 -17.3860 16.5641 34.3903 9.5365 -7.1250 0.0000 -0.0000 -20.7272 64.3603 -9.9219 0.0000 0.0000 0.0000 82.4785 2.6860 7.3435 -18.9070 29.3029 -4.9852 0.0000 0.0000 12.5856 -27.3648 28.9480 -14.0639 7.1250 -0.0000 -0.0000 1.9455 1.9193 2.0107
0.00 0.00 0.00 179.0630 -77.5188 -166.0370 0.0000 0.0000 0.0000 -22.1208 -9.8514 -38.6205 4.5086 12.8081 38.6542 1.0686 3.7726 -21.2290 0.3064 -3.5588 -9.8385 0.0000 0.0000 0.0000 17.7319 5.6096 -10.3054 -7.9424 -16.0767 52.3550 -0.1281 -10.7296 9.3739 -5.9308 -14.3609 44.7033 -4.6937 0.3724 -10.5142 -1.0279 1.1319 0.6757 1.7415 0.3986 6.5551 1.0067 3.7075 -21.0191 -2.5563 5.3228 18.0646 -0.3077 2.2364 9.2457 -0.0000 -0.0000 0.0000 -81.4684 -0.2370 27.1172 18.8292 -29.2059 -4.9472 -0.0000 0.0000 -16.7201 16.4372 34.1029 9.3924 -7.1250 0.0000 -0.0000 -20.5857 64.0611 -9.7081 -0.0000 -0.0000 0.0000 83.0989 -3.5904 10.6588 -16.2240 25.8234 -3.7430 0.0000 0.0000 19.1179 -14.8860 29.3602 -7.4255 7.1250 -0.0000 -0.0000 9.2592 -0.1217 9.3626
0.00 0.00 0.00 181.0510 -76.5551 -169.2200 0.0000 0.0000 0.0000 -23.2452 -9.0140 -34.2424 4.7354 13.0795 39.6668 1.6785 2.0737 -25.3023 0.3565 -3.8360 -10.6159 0.0000 0.0000 0.0000 15.3358 8.0929 -22.0088 -12.2148 -18.4800 66.6682 -0.0172 -1.4681 2.3932 -6.0280 -14.4555 45.0942 -4.8227 -0.6704 -9.5121 0.0673 -0.3404 1.0902 2.7366 -0.3464 6.5282 1.6875 4.8766 -20.2751 -3.3962 6.9027 17.8406 -0.4989 2.9331 9.1252 -0.0000 -0.0000 0.0000 -80.1945 -6.2170 28.9484 18.9963 -29.4141 -5.0291 -0.0000 0.0000 -17.4734 17.2196 34.6015 9.9816 -7.1250 0.0000 -0.0000 -20.1989 64.7344 -9.8341 -0.0000 -0.0000 0.0000 82.6727 -2.6116 12.7651 -17.9796 28.1311 -4.5396 0.0000 0.0000 16.3865 -15.3128 27.2945 -7.1566 7.1250 -0.0000 -0.0000 8.8380 -2.1226 8.6088
0.00 0.00 0.00 17.7286 -83.8834 -9.1782 0.0000 0.0000 0.0000 -29.2200 -2.9167 -6.9713 3.0566 10.7861 31.5619 1.5752 -13.9184 -23.0963 0.2792 -3.3983 -9.3898 0.0000 0.0000 0.0000 3.2951 31.8352 -37.5909 -2.4580 -9.7611 28.2065 -0.2267 -3.2038 8.4605 -5.9570 -14.3866 44.8089 -3.1823 -2.2624 -8.2162 1.9782 -2.8219 2.5478 3.4617 -1.5864 7.5656 3.1793 6.0928 -18.3063 -5.0745 8.6047 19.1126 -1.1070 3.6384 9.4162 0.0000 0.0000 0.0000 -83.8333 -8.5141 35.6237 18.4126 -28.6823 -4.7456 -0.0000 0.0000 -16.0262 15.8117 33.0130 8.7711 -7.1250 0.0000 -0.0000 -20.2551 62.8879 -8.9900 0.0000 0.0000 0.0000 81.9568 -7.6223 0.3583 -16.2694 25.8846 -3.7628 0.0000 0.0000 18.4393 -19.3676 27.8809 -9.3350 7.1250 -0.0000 -0.0000 6.4860 -0.8616 6.4292
0.00 0.00 0.00 2.5180 -75.7087 6.7869 0.0000 0.0000 0.0000 -24.7052 -3.0718 -3.2198 4.4065 12.6825 38.1914 0.1329 -9.5505 -8.8074 0.2599 -3.2799 -9.0591 0.0000 0.0000 0.0000 8.5991 28.3221 -32.6607 -3.9416 -12.0822 36.0236 -0.3762 -7.4832 11.3571 -6.3342 -14.7446 46.3089 0.5838 -1.1332 -8.9826 2.7418 -1.8033 2.1969 2.2847 -0.9349 7.4387 4.4922 6.8233 -18.2549 -6.8883 9.6800 18.9272 -1.7826 4.0384 9.5648 -0.0000 0.0000 0.0000 -86.3931 4.8088 27.7317 13.0116 -21.3042 -2.4575 -0.0000 0.0000 -11.7563 15.2285 35.2040 8.9191 -7.1250 0.0000 -0.0000 -23.0641 64.7357 -11.2962 -0.0000 0.0000 0.0000 79.8546 -8.6277 -3.3510 -15.4642 24.7888 -3.4182 0.0000 0.0000 17.8654 -17.3347 25.5264 -7.6606 7.1250 -0.0000 -0.0000 7.4809 -3.5973 7.0582
0.00 0.00 0.00 -0.0087 -70.1630 9.8872 0.0000 0.0000 0.0000 -20.6180 -2.9974 -11.3081 8.0206 16.1344 52.6368 -0.0043 -1.1946 0.6933 0.4636 -4.3675 -12.1129 0.0000 0.0000 0.0000 11.2672 24.2563 -30.4500 -4.2892 -12.5356 37.6542 -0.5136 -3.0840 12.8339 -6.4050 -14.8096 46.5862 1.3016 -0.8695 -9.1868 3.2241 -1.5818 2.0988 2.4219 -0.8099 7.4399 4.3933 6.3278 -18.0387 -6.7171 8.9783 18.7376 -1.8168 3.7402 9.4010 -0.0000 0.0000 0.0000 -85.6988 7.8665 29.9199 13.7685 -22.4028 -2.7393 -0.0000 0.0000 -11.9888 12.6478 34.4055 7.2264 -7.1250 0.0000 -0.0000 -25.0478 63.3278 -11.5037 -0.0000 0.0000 0.0000 78.3982 -5.8159 -4.1462 -14.9911 24.1337 -3.2223 0.0000 0.0000 19.4653 -17.3426 24.9109 -7.4934 7.1250 -0.0000 -0.0000 7.4266 -4.2215 6.9193
0.00 0.00 0.00 -0.4779 -62.0789 10.9627 0.0000 0.0000 0.0000 -17.9362 -4.7142 -23.5737 12.4530 18.5756 67.4175 -0.0539 8.5835 -11.1357 0.5497 -4.7499 -13.1966 0.0000 0.0000 0.0000 13.5084 20.3298 -27.8713 -4.4938 -12.7900 38.5875 -0.3052 2.5542 11.6923 -6.4755 -14.8738 46.8614 2.0400 -0.4914 -8.7317 3.3050 -1.1596 2.2952 2.1596 -0.5731 7.3611 3.7489 5.2256 -17.7817 -6.2411 7.4724 17.7252 -1.7692 3.0820 8.8664 -0.0000 0.0000 0.0000 -84.8169 7.5081 32.5531 16.4649 -26.1470 -3.8486 -0.0000 0.0000 -14.5718 12.1569 34.6782 6.9877 -7.1250 0.0000 -0.0000 -25.8591 63.4400 -11.9696 -0.0000 0.0000 0.0000 76.2091 -2.7695 -0.0446 -15.8760 25.3522 -3.5927 0.0000 0.0000 17.2182 -21.1412 24.7748 -9.2045 7.1250 -0.0000 -0.0000 5.0909 -3.7415 4.7671
0.00 0.00 0.00 -5.0507 -36.8372 13.2861 0.0000 0.0000 0.0000 -22.8392 -5.3631 -45.3471 2.0498 8.9691 25.6986 2.4093 6.6698 -32.2744 0.3443 -3.7702 -10.4310 0.0000 0.0000 0.0000 26.5601 3.4892 -11.3087 -3.2977 -11.1621 32.8286 1.1651 18.7318 8.4761 -6.4567 -14.8568 46.7882 4.1666 1.0211 -9.1659 2.7958 0.6431 2.1880 0.7050 0.4230 7.4866 4.3219 3.5912 -17.7197 -5.2448 4.9490 19.7390 -1.8709 2.0316 9.3939 0.0000 -0.0000 0.0000 -87.4950 0.8168 31.8620 15.2306 -24.4663 -3.3208 -0.0000 0.0000 -14.6989 13.0499 33.1201 7.2179 -7.1250 0.0000 -0.0000 -23.3539 62.2794 -10.1048 0.0000 -0.0000 0.0000 69.6365 12.0560 11.0259 -25.4149 36.6250 -8.5362 0.0000 0.0000 8.7166 -25.2734 26.3565 -11.8381 7.1250 -0.0000 -0.0000 2.7810 -1.2909 2.7209
0.00 0.00 0.00 -1.5601 24.7927 10.9728 0.0000 0.0000 0.0000 -27.5554 -9.0582 -9.7100 3.2169 11.0381 32.4085 -0.1441 -19.5346 -12.4875 0.0031 -0.3580 -0.9837 0.0000 0.0000 0.0000 5.7727 35.5220 -41.9852 -2.6635 -10.1293 29.3965 0.3754 -14.3871 4.9101 -1.1869 -6.9137 19.4600 -1.4514 -1.3933 -9.4468 1.8026 -1.8179 2.3612 2.4305 -1.0043 7.9157 6.8006 9.9837 -16.5506 -8.2390 14.0886 19.7236 -1.9663 6.1734 10.0987 0.0000 -0.0000 0.0000 -86.9576 -4.4711 33.9864 16.2197 -25.8176 -3.7411 -0.0000 0.0000 -14.7578 19.4652 33.1620 10.9421 -7.1250 0.0000 -0.0000 -16.2771 63.9932 -7.5905 0.0000 -0.0000 0.0000 76.9332 -9.3558 2.5868 -19.9754 30.6127 -5.5188 0.0000 0.0000 10.0242 -21.1232 26.0021 -9.6129 7.1250 -0.0000 -0.0000 5.2322 -2.4742 5.0227
0.00 0.00 0.00 -2.4148 43.2078 10.7167 0.0000 0.0000 0.0000 -23.0847 -11.1308 -5.7616 4.9376 13.3131 40.5523 -0.5290 -13.1034 1.6585 0.0090 -0.6116 -1.6805 0.0000 0.0000 0.0000 9.2429 32.6480 -35.0779 -4.1487 -12.3557 37.0022 0.4957 14.4974 -2.7729 -11.8128 18.3104 -65.3943 1.9065 -0.6328 -11.1532 2.7093 -1.3133 1.7200 1.5658 -0.6138 8.1274 6.9069 8.4026 -16.9408 -8.4706 12.0151 20.6361 -2.3764 5.1894 10.3485 0.0000 -0.0000 0.0000 -86.6661 1.8842 31.9180 15.6565 -25.0527 -3.4993 -0.0000 0.0000 -15.4499 16.2550 35.1208 9.5221 -7.1250 0.0000 -0.0000 -21.8263 64.9439 -10.7668 0.0000 -0.0000 0.0000 74.9511 -8.4666 -1.3519 -18.8106 29.1826 -4.9381 0.0000 0.0000 11.6331 -20.5584 26.7766 -9.5903 7.1250 -0.0000 -0.0000 5.6567 -1.7781 5.5056
0.00 0.00 0.00 -3.0004 52.9347 10.6987 0.0000 0.0000 0.0000 -18.3952 -8.3678 -15.8799 8.6715 16.5916 54.9469 -0.0037 -3.3000 4.5182 1.5597 -7.8815 -22.3549 0.0000 0.0000 0.0000 12.1863 27.2491 -31.9472 -4.3270 -12.5832 37.8278 0.0519 10.7081 -6.6699 -11.5764 18.2058 -64.6398 2.1584 -0.8625 -11.2894 3.4948 -1.7015 1.5466 2.1898 -0.8056 8.0459 5.9353 7.5915 -17.7939 -7.9150 10.9794 20.7837 -2.1644 4.6778 10.3756 0.0000 0.0000 0.0000 -86.5742 2.4145 35.1751 18.5969 -28.9147 -4.8344 -0.0000 0.0000 -16.6988 15.2274 34.7986 8.8302 -7.1250 0.0000 -0.0000 -22.6365 64.3695 -10.8844 0.0000 0.0000 0.0000 73.8118 -6.3372 1.4558 -19.5457 30.0911 -5.3017 0.0000 0.0000 11.9455 -20.7439 27.0335 -9.7674 7.1250 -0.0000 -0.0000 5.5745 -1.4799 5.4547
